<svg width="40" height="30" viewBox="0 0 40 30" fill="none" xmlns="http://www.w3.org/2000/svg">
<g id="Group">
<g id="Group_2">
<mask id="mask0_20692_208" style="mask-type:alpha" maskUnits="userSpaceOnUse" x="0" y="7" width="36" height="23">
<g id="b">
<path id="Vector" d="M0 7.03223H35.9492V29.6797H0V7.03223Z" fill="white"/>
</g>
</mask>
<g mask="url(#mask0_20692_208)">
<path id="Vector_2" fill-rule="evenodd" clip-rule="evenodd" d="M0.0305085 21.7922C1.20508 23.5596 2.65119 25.2518 4.34746 26.5693C5.19661 27.2308 6.11797 27.7998 7.10898 28.2066C8.10153 28.5946 9.16932 28.8325 10.2239 29.0273C12.3437 29.401 14.5266 29.429 16.6388 29.0359C18.7551 28.6622 20.7783 27.8751 22.6683 26.8576C24.5537 25.8188 26.3192 24.5629 27.8619 23.0629C29.4168 21.5756 30.7439 19.862 31.9531 18.0747C33.1271 16.2661 34.3241 14.434 35.1473 12.4596C35.3364 11.9634 35.5149 11.4554 35.5709 10.9444C35.5958 10.6901 35.5927 10.4369 35.5302 10.2061C35.4666 9.97015 35.3308 9.80184 35.1386 9.58472C34.8458 9.19574 34.3419 8.9293 33.8995 8.63642C33.4419 8.35371 32.9736 8.08218 32.5022 7.82083L32.5002 7.82032L32.4783 7.80659C31.9612 7.46591 31.2508 7.33981 30.5908 7.35811C30.2614 7.37235 29.9034 7.39727 29.608 7.4954C29.297 7.60705 29.0058 7.76735 28.7451 7.97032C27.6742 8.79659 26.8393 9.94066 26.1112 11.0949L26.1163 11.0847L22.379 18.6539C20.9064 21.0905 18.7078 23.0674 16.1115 24.2085C14.8091 24.7715 13.4191 25.1052 12.0031 25.1949C10.5925 25.2622 9.17875 25.173 7.7878 24.929C5.02627 24.4291 2.30186 23.3822 0.0305085 21.7932V21.7922ZM0 21.7581C2.36413 23.3035 5.02117 24.3455 7.80559 24.8191C9.18864 25.0505 10.5956 25.1283 11.9949 25.0495C13.3912 24.951 14.7599 24.6116 16.0403 24.0462C18.5878 22.9093 20.7488 20.9181 22.1675 18.5435L25.858 10.9581L25.8636 10.9479C26.6059 9.75913 27.4286 8.60489 28.5585 7.71964C28.8451 7.49391 29.1661 7.31571 29.5093 7.19184C29.8759 7.07184 30.2202 7.05354 30.5822 7.03371C31.2986 7.01845 32.0308 7.11659 32.6853 7.53964L32.6624 7.52489C33.1419 7.7857 33.6151 8.05798 34.0815 8.3415C34.5356 8.64354 35.0354 8.88405 35.4142 9.35845C35.5825 9.54201 35.8017 9.80845 35.8769 10.1044C35.9588 10.3993 35.9598 10.6962 35.9344 10.981C35.8734 11.552 35.6903 12.0803 35.4986 12.5964C34.6612 14.641 33.4775 16.4746 32.3069 18.3101C31.1019 20.1244 29.7661 21.8761 28.1776 23.3893C26.6059 24.9183 24.8039 26.2012 22.888 27.2578C19.0653 29.4107 14.4651 30.2013 10.168 29.3323C9.09458 29.1178 8.03542 28.8676 7.00831 28.4512C5.99542 28.019 5.06288 27.424 4.2117 26.7396C2.52309 25.3426 1.0969 23.6559 0 21.7586" fill="#231F20"/>
</g>
</g>
<g id="Group_3">
<mask id="mask1_20692_208" style="mask-type:alpha" maskUnits="userSpaceOnUse" x="32" y="0" width="8" height="8">
<g id="d">
<path id="Vector_3" d="M32.3095 0H39.7566V7.64237H32.3095V0Z" fill="white"/>
</g>
</mask>
<g mask="url(#mask1_20692_208)">
<path id="Vector_4" fill-rule="evenodd" clip-rule="evenodd" d="M32.3146 7.60518C32.969 6.75857 33.6234 5.92569 34.1847 5.03586C34.7664 4.17196 35.2195 3.21908 35.7595 2.28196C36.0249 1.81518 36.2934 1.34942 36.6147 0.908065C36.7754 0.688404 36.9452 0.471794 37.1629 0.284167C37.3734 0.080777 37.7039 -0.0199009 37.981 0.00196351C38.5607 0.0172177 39.0885 0.368065 39.3691 0.840947C39.6493 1.31993 39.7464 1.86908 39.7566 2.40196C39.7568 2.40499 39.7564 2.40802 39.7554 2.41088C39.7544 2.41373 39.7528 2.41636 39.7508 2.4186C39.7487 2.42083 39.7463 2.42263 39.7435 2.42388C39.7407 2.42512 39.7378 2.4258 39.7347 2.42586C39.7289 2.42587 39.7233 2.42367 39.7191 2.41971C39.7148 2.41574 39.7122 2.41031 39.7119 2.40451C39.6712 1.87722 39.5415 1.34739 39.2542 0.916201C38.9669 0.490099 38.4773 0.214506 37.979 0.230777C37.4583 0.19315 37.1563 0.654845 36.8578 1.0784C36.5695 1.51315 36.3239 1.98349 36.0819 2.45484C35.6003 3.38688 35.2241 4.41756 34.5625 5.29518C33.9147 6.16162 33.1932 6.9701 32.3466 7.63823C32.3442 7.64001 32.3414 7.64129 32.3385 7.64199C32.3355 7.6427 32.3325 7.64282 32.3295 7.64235C32.3265 7.64188 32.3237 7.64082 32.3211 7.63924C32.3186 7.63766 32.3163 7.63559 32.3146 7.63315C32.3074 7.62501 32.3085 7.61332 32.3146 7.60518Z" fill="#231F20"/>
</g>
</g>
<path id="Vector_5" fill-rule="evenodd" clip-rule="evenodd" d="M34.8925 9.14343C34.9007 8.34258 35.0186 7.55903 35.1361 6.77547C35.2658 5.99394 35.4839 5.2297 35.6913 4.46547C35.8939 3.69873 36.1219 2.93898 36.3752 2.1875C36.5074 1.81326 36.6498 1.44055 36.8181 1.07903C37.0022 0.740381 37.1451 0.312754 37.5483 0.145466C37.5605 0.141907 37.5732 0.146483 37.5778 0.158178C37.5813 0.168347 37.5778 0.181059 37.5666 0.185635L37.5564 0.191229C37.2208 0.358008 37.0917 0.788686 36.9442 1.13292C36.8069 1.49903 36.6951 1.87631 36.5934 2.25614C36.3859 3.01462 36.2038 3.77979 36.0473 4.55038C35.8881 5.32225 35.7722 6.10174 35.5846 6.86699C35.3858 7.63021 35.2047 8.3975 34.9373 9.15055C34.9364 9.15349 34.9349 9.15621 34.9329 9.15856C34.9309 9.1609 34.9284 9.16282 34.9257 9.1642C34.9229 9.16557 34.9199 9.16638 34.9168 9.16657C34.9138 9.16676 34.9107 9.16633 34.9078 9.1653C34.8986 9.16275 34.8925 9.15259 34.8925 9.14343ZM25.2559 16.9485C25.8061 15.3936 26.4651 13.8758 27.2624 12.42C27.6666 11.696 28.083 10.9658 28.648 10.3338C29.219 9.74445 29.9258 9.10479 30.8034 9.07174C30.8161 9.07072 30.8263 9.08089 30.8273 9.0936C30.8273 9.10377 30.8186 9.11292 30.8095 9.11648C30.0381 9.40225 29.4976 10.0099 28.9958 10.6307C28.5061 11.2663 28.0195 11.9167 27.5786 12.6056C26.7244 13.9978 25.9688 15.4633 25.2981 16.9648C25.2971 16.9676 25.2955 16.9702 25.2935 16.9725C25.2914 16.9747 25.289 16.9765 25.2862 16.9777C25.2835 16.9789 25.2805 16.9796 25.2775 16.9796C25.2744 16.9797 25.2714 16.9791 25.2686 16.978C25.2632 16.9755 25.2589 16.9712 25.2566 16.9657C25.2542 16.9603 25.254 16.9541 25.2559 16.9485Z" fill="#231F20"/>
</g>
</svg>
