<svg width="216" height="40" viewBox="0 0 216 40" fill="none" xmlns="http://www.w3.org/2000/svg">
<g id="Group 181">
<path id="Star 1" d="M20 0L24.4903 13.8197H39.0211L27.2654 22.3607L31.7557 36.1803L20 27.6393L8.2443 36.1803L12.7346 22.3607L0.97887 13.8197H15.5097L20 0Z" fill="#DE9200"/>
<path id="Star 2" d="M64 0L68.4903 13.8197H83.0211L71.2654 22.3607L75.7557 36.1803L64 27.6393L52.2443 36.1803L56.7346 22.3607L44.9789 13.8197H59.5097L64 0Z" fill="#DE9200"/>
<path id="Star 3" d="M108 1.61804L112.015 13.9742L112.127 14.3197H112.49H125.482L114.972 21.9562L114.678 22.1697L114.79 22.5152L118.805 34.8713L108.294 27.2348L108 27.0213L107.706 27.2348L97.1954 34.8713L101.21 22.5152L101.322 22.1697L101.028 21.9562L90.5177 14.3197H103.51H103.873L103.985 13.9742L108 1.61804Z" stroke="#DE9200"/>
<path id="Star 4" d="M152 1.61804L156.015 13.9742L156.127 14.3197H156.49H169.482L158.972 21.9562L158.678 22.1697L158.79 22.5152L162.805 34.8713L152.294 27.2348L152 27.0213L151.706 27.2348L141.195 34.8713L145.21 22.5152L145.322 22.1697L145.028 21.9562L134.518 14.3197H147.51H147.873L147.985 13.9742L152 1.61804Z" stroke="#DE9200"/>
<path id="Star 5" d="M196 1.61804L200.015 13.9742L200.127 14.3197H200.49H213.482L202.972 21.9562L202.678 22.1697L202.79 22.5152L206.805 34.8713L196.294 27.2348L196 27.0213L195.706 27.2348L185.195 34.8713L189.21 22.5152L189.322 22.1697L189.028 21.9562L178.518 14.3197H191.51H191.873L191.985 13.9742L196 1.61804Z" stroke="#DE9200"/>
</g>
</svg>
