<svg width="31" height="31" viewBox="0 0 31 31" fill="none" xmlns="http://www.w3.org/2000/svg">
<g id="Group">
<path id="Vector" fill-rule="evenodd" clip-rule="evenodd" d="M18.0035 21.9299L11.437 12.8999L18.3935 21.6352C18.4735 21.7345 18.4522 21.8831 18.3457 21.967C18.2396 22.0503 18.0892 22.0371 18.0096 21.9383C18.0073 21.9357 18.0053 21.9329 18.0035 21.9299Z" fill="#010202"/>
<path id="Vector_2" d="M18.047 21.573C18.4104 22.0371 18.7452 26.1127 18.7452 26.1127C18.7452 26.1127 21.1278 23.418 21.6652 19.6394C22.2017 15.8607 21.4696 15.3555 20.8339 13.4364C20.1983 11.5173 17.5165 9.04318 16.1444 8.36377C15.1548 7.87406 11.9861 6.76053 10.2696 6.16891C9.65131 5.95715 8.95436 6.30656 8.73479 6.9348C7.71566 9.8545 7.52218 12.9776 8.36262 15.8527C8.86131 17.5574 9.7187 19.1677 11.1852 19.9566C11.1852 19.9566 14.6009 21.6595 16.8752 21.2289C19.1487 20.7983 18.7304 25.1377 18.7304 25.1377" stroke="#010202" stroke-width="0.5" stroke-linecap="round" stroke-linejoin="round"/>
<path id="Vector_3" fill-rule="evenodd" clip-rule="evenodd" d="M15.4783 29.8626L13.733 30.1679L12.1104 29.4479L10.3443 29.3204L8.9387 28.2272L7.25348 27.6744L6.14696 26.2715L4.6413 25.326L3.89739 23.6954L2.65826 22.4116L2.32087 20.6469L1.42087 19.0997L1.50913 17.305L1 15.584L1.5087 13.8629L1.42087 12.0682L2.32087 10.5206L2.65826 8.75677L3.89739 7.47294L4.64087 5.84191L6.14696 4.89603L7.25348 3.49309L8.9387 2.94074L10.3443 1.8475L12.1104 1.72L13.733 1L15.4783 1.30529L17.2235 1L18.8461 1.72L20.6122 1.8475L22.0178 2.94074L23.703 3.49353L24.8096 4.89647L26.3152 5.84191L27.0591 7.4725L28.2983 8.75632L28.6356 10.521L29.5356 12.0682L29.4474 13.8629L29.9565 15.584L29.4478 17.305L29.5356 19.0997L28.6356 20.6474L28.2983 22.4112L27.0591 23.695L26.3157 25.326L24.8096 26.2719L23.703 27.6749L22.0178 28.2272L20.6122 29.3204L18.8461 29.4479L17.2235 30.1679L15.4783 29.8626Z" stroke="black" stroke-width="0.5"/>
</g>
</svg>
